<svg class="thumb" viewBox="23.491 7.663 323.174 381.211" width="323.174" height="381.211" xmlns="http://www.w3.org/2000/svg" xmlns:inkscape="http://www.inkscape.org/namespaces/inkscape" xmlns:sodipodi="http://sodipodi.sourceforge.net/DTD/sodipodi-0.dtd" xmlns:xlink="http://www.w3.org/1999/xlink" xmlns:ns1="http://www.inkscape.org/namespaces/inkscape" xmlns:sketch="http://www.bohemiancoding.com/sketch/ns" data-guid="e8a1bb37-a4fc-4085-ad33-640f11590d49"><defs></defs><g transform="matrix(1, 0, 0, 1, -113.278931, -6.711761)"><g transform="matrix(1.5526,-1.4478,1.4478,1.5526,152.1685,136.1942)"><svg width="94.50270711490569" height="99.78024999999998" viewBox="2.4972928850943132,0.23500000000000032,94.50270711490569,99.78024999999998"><defs><linearGradient x1="0" y1="0.5" x2="1" y2="0.5" id="linearGradientSkl3a4g5px1"><stop offset="0" stop-color="#e33c17" data-darkreader-inline-stopcolor="" style="--darkreader-inline-stopcolor:#b63012;"></stop><stop offset="1" stop-color="#e33c17" data-darkreader-inline-stopcolor="" style="--darkreader-inline-stopcolor:#b63012;"></stop></linearGradient></defs><g><path d="M88.222,34.495c-0.913-1.409-1.659-3.634-1.659-4.945c0-1.311-1.07-3.246-2.375-4.299L71.201,14.778  c-1.306-1.054-3.19-1.916-4.187-1.916s-2.883-0.857-4.194-1.906l-4.771-3.815c-1.311-1.049-3.755-1.906-5.434-1.906h-0.429  c-1.679,0-4.082,0.908-5.341,2.019l-7.963,7.023c-1.259,1.11-3.636,2.281-5.284,2.601l-0.875,0.17  c-1.647,0.321-4.216,1.211-5.708,1.979l-1.249,0.642c-1.492,0.767-3.379,2.596-4.192,4.063L14.807,35.94  c-0.813,1.467-1.343,4.034-1.176,5.705l1.109,11.091c0.167,1.67-0.606,4.065-1.718,5.322l-4.729,5.346  c-1.112,1.256-1.051,3.256,0.136,4.443l1.216,1.216c1.187,1.187,3.128,1.187,4.315,0l0.262-0.262  c1.186-1.187,3.53-2.158,5.208-2.158h3.433c1.679,0,2.624-1.305,2.102-2.9c0,0-6.106-18.65-4.771-22.083s3.813-16.974,15.829-17.927  c12.015-0.954,13.358,1.829,13.358,1.829c0.729,1.512,0.24,3.587-1.088,4.614c0,0-1.781,1.377,4.703,4.238  c6.484,2.86,6.484,1.525,6.484,1.525c0-1.679,1.31-3.464,2.91-3.97c0,0,0.714-0.226,0.523,1.872  c-0.19,2.097-5.147,10.109-10.869,8.964c-5.721-1.144-9.44-3.512-9.44-3.512c-1.417-0.9-2.618-2.925-2.67-4.499  c-0.053-1.573-1.231-2.088-2.619-1.145c0,0-2.245,1.526,0.998,6.294c3.243,4.768,6.915,14.316,6.915,14.316  c0.602,1.566,1.578,1.563,2.169-0.009l4.175-4.277c0.995-1.351,2.522-1.284,3.395,0.149l5.556,3.002  c1.32,1.037,3.45,2.769,4.735,3.849c0,0,6.049,5.091,6.049,6.235c0,1.145-8.01,7.628-9.345,8.2  c-1.335,0.572-11.157-0.477-12.777,1.145c-1.578,1.578-16.078,15.651-16.078,15.651c-1.204,1.169-1.219,3.096-0.032,4.283  l1.637,1.638c1.187,1.187,3.128,1.187,4.315,0l10.731-10.732c1.187-1.187,3.519-2.341,5.182-2.565l7.434-1.001  c1.663-0.225,4.167-1.169,5.563-2.101l0.644-0.429c1.396-0.931,3.509-2.664,4.696-3.85L89.843,56.88  C91.029,55.693,92,53.349,92,51.67v-8.296c0-1.679-0.747-4.204-1.659-5.613L88.222,34.495z M55.688,22.649  c-1.244,1.125-3.541,1.543-5.101,0.927l-3.53-2.467c-1.463-0.824-1.849-2.607-0.86-3.963c0,0,4.049-5.545,5.193-4.782  c1.145,0.762,6.866,4.705,7.121,6.103S55.688,22.649,55.688,22.649z M59.529,26.221c-1.33-0.489-1.721-2.075-0.872-3.522  c0,0,1.889-3.217,4.304-3.217c2.416,0,7.374,4.449,5.975,6.484c-1.398,2.034-2.171,5.086-5.79,2.67  C59.529,26.221,59.529,26.221,59.529,26.221z M59.401,43.894c3.942-3.306,9.73-11.843,9.73-11.843  c0.942-1.388,2.464-3.676,3.38-5.081c0,0,0.239-0.367,2.147,1.031c1.907,1.398,3.13,3.671,3.13,3.671  c0.795,1.477,0.779,3.886-0.039,5.352L66.292,48.509c-1.133,1.238-3.333,1.734-4.887,1.104C61.406,49.612,55.46,47.2,59.401,43.894z   M76.184,58.515c-1.144,0-7.775-4.704-7.003-5.594c0.774-0.89,10.877-11.52,10.877-11.52c1.156-1.217,3.381-1.71,4.943-1.098  c0,0,0.719,0.283,0.846,4.733C85.975,49.489,77.329,58.515,76.184,58.515z" stroke="none" fill="url('#linearGradientSkl3a4g5px1')" style="--darkreader-inline-stroke:none;" data-darkreader-inline-stroke=""></path></g></svg></g><g transform="matrix(0.8806,0,0,0.8806,128.8626,236.5846)"><svg width="381.4453125" height="187" style="overflow: visible;"><defs><linearGradient x1="0" y1="0.5" x2="1" y2="0.5" id="linearGradientSkl3a4g5pzp"><stop offset="0" stop-color="#1f252e" data-darkreader-inline-stopcolor="" style="--darkreader-inline-stopcolor:#191e25;"></stop><stop offset="1" stop-color="#1f252e" data-darkreader-inline-stopcolor="" style="--darkreader-inline-stopcolor:#191e25;"></stop></linearGradient></defs><g transform="matrix(1,0,0,1,0,95.25)"><path d="M 8.98 0L 8.98-71.97L 20.9-71.97L 40.23-27.54L 40.23-9.47L 37.11-9.47L 20.9-49.51L 20.9 0L 8.98 0ZM 44.24-27.34L 63.57-71.97L 75.49-71.97L 75.49 0L 63.57 0L 63.57-49.51L 47.46-9.47L 44.24-9.47L 44.24-27.34ZM 118.75265624999999-46.19L 118.75265624999999-55.37Q 124.12265624999998-55.08  128.51265625-52.78Q 132.91265625-50.49  135.89265625-46.73Q 138.86265625-42.97  140.52265624999998-37.99Q 142.18265624999998-33.01  142.18265624999998-27.34L 142.18265624999998-27.34Q 142.18265624999998-21.68  140.48265625-16.75Q 138.77265624999998-11.82  135.74265624999998-8.15Q 132.71265624999998-4.49  128.32265625-2.25Q 123.92265624999999 0  118.75265624999999 0.39L 118.75265624999999 0.39L 118.75265624999999-8.98Q 123.63265624999998-10.06  126.71265624999998-15.14Q 129.78265625-20.21  129.78265625-27.34L 129.78265625-27.34Q 129.78265625-30.96  129.05265624999998-34.13Q 128.32265625-37.3  126.85265625-39.84Q 125.39265624999999-42.38  123.34265624999998-44.04Q 121.29265625-45.7  118.75265624999999-46.19L 118.75265624999999-46.19ZM 91.50265624999999-27.54L 91.50265624999999-27.54Q 91.50265624999999-33.2  93.16265624999998-38.09Q 94.82265624999998-42.97  97.90265624999998-46.63Q 100.97265624999999-50.29  105.27265624999998-52.54Q 109.57265625-54.79  114.74265624999998-55.27L 114.74265624999998-55.27L 114.74265624999998-46.19Q 109.86265624999999-45.12  106.93265624999998-40.04Q 104.00265624999999-34.96  104.00265624999999-27.83L 104.00265624999999-27.83Q 104.00265624999999-24.22  104.73265624999999-21Q 105.47265624999999-17.77  106.83265624999999-15.23Q 108.20265624999999-12.7  110.20265624999999-11.04Q 112.20265624999999-9.38  114.74265624999998-8.98L 114.74265624999998-8.98L 114.74265624999998 0.39Q 109.37265624999998 0  105.08265624999999-2.29Q 100.78265624999999-4.59  97.75265624999999-8.3Q 94.72265624999999-12.01  93.11265624999999-16.99Q 91.50265624999999-21.97  91.50265624999999-27.54ZM 157.52109375-55.08L 168.07109375-55.08L 169.33109375-49.51L 169.33109375 0L 157.52109375 0L 157.52109375-55.08ZM 198.53109375-49.02L 198.53109375-49.02Q 200.19109375-47.36  201.12109375-45.17Q 202.05109375-42.97  202.49109375-40.58Q 202.93109375-38.18  203.03109375-35.74Q 203.12109375-33.3  203.12109375-30.96L 203.12109375-30.96L 203.12109375-1.95L 203.12109375 0L 191.21109375 0L 191.21109375-29.98Q 191.21109375-33.3  190.92109375-36.33Q 190.62109375-39.36  189.55109375-41.7Q 188.48109375-44.04  186.62109375-45.36Q 184.76109375-46.68  181.44109375-46.68L 181.44109375-46.68Q 180.08109375-46.68  177.78109375-46.24Q 175.49109375-45.8  173.34109375-44.82L 173.34109375-44.82L 173.34109375-52.34Q 175.98109375-53.71  179.05109375-54.69Q 182.13109375-55.66  185.06109375-55.66L 185.06109375-55.66Q 189.45109374999998-55.66  192.48109375-53.86Q 195.51109375-52.05  198.53109375-49.02ZM 229.00515624999994-16.6L 229.00515624999994-16.6Q 229.00515624999994-12.21  230.81515624999994-10.06Q 232.61515624999993-7.91  236.03515624999994-7.52L 236.03515624999994-7.52L 236.03515624999994 0.39Q 235.64515624999996 0.49  234.76515624999993 0.49L 234.76515624999993 0.49Q 231.44515624999994 0.49  228.36515624999993-0.39Q 225.29515624999993-1.27  222.94515624999994-3.22Q 220.60515624999994-5.18  219.28515624999994-8.4Q 217.96515624999995-11.62  217.96515624999995-16.31L 217.96515624999995-16.31Q 217.96515624999995-20.8  219.87515624999995-24.07Q 221.77515624999995-27.34  224.75515624999994-29.44Q 227.73515624999993-31.54  231.54515624999993-32.57Q 235.35515624999994-33.59  239.25515624999994-33.59L 239.25515624999994-33.59L 243.55515624999995-33.59L 243.55515624999995-26.66L 241.40515624999995-26.66Q 239.45515624999996-26.66  237.30515624999995-26.27Q 235.15515624999995-25.88  233.30515624999995-24.8Q 231.44515624999994-23.73  230.22515624999994-21.73Q 229.00515624999994-19.73  229.00515624999994-16.6ZM 259.3751562499999-17.09L 259.3751562499999-16.31Q 259.3751562499999-15.53  259.47515624999994-14.01Q 259.57515624999996-12.5  259.8651562499999-10.94Q 260.15515624999995-9.38  260.79515624999993-8.11Q 261.42515624999993-6.84  262.4951562499999-6.45L 262.4951562499999-6.45L 259.3751562499999 0.1Q 258.10515624999994 0.1  256.6851562499999-0.49Q 255.27515624999995-1.07  253.95515624999996-2.15Q 252.63515624999994-3.22  251.70515624999996-4.54Q 250.78515624999994-5.86  250.29515624999993-7.42L 250.29515624999993-7.42Q 249.31515624999994-4.98  246.43515624999995-3.08Q 243.55515624999995-1.17  240.03515624999994-0.29L 240.03515624999994-0.29L 240.03515624999994-7.71Q 242.38515624999994-8.2  244.28515624999994-9.62Q 246.19515624999994-11.04  247.55515624999995-12.99L 247.55515624999995-12.99L 247.55515624999995-33.59Q 247.55515624999995-38.38  247.07515624999994-41.21Q 246.58515624999995-44.04  245.41515624999994-45.36Q 244.23515624999993-46.68  242.52515624999995-47.02Q 240.82515624999994-47.36  238.47515624999994-47.36L 238.47515624999994-47.36Q 236.32515624999994-47.36  234.42515624999993-46.83Q 232.51515624999993-46.29  230.90515624999995-45.56Q 229.29515624999993-44.82  228.07515624999994-43.95Q 226.85515624999994-43.07  226.26515624999993-42.58L 226.26515624999993-42.58L 221.87515624999995-49.32Q 222.85515624999994-50.39  224.80515624999995-51.51Q 226.75515624999994-52.64  229.29515624999993-53.52Q 231.83515624999995-54.39  234.81515624999994-54.93Q 237.79515624999993-55.47  241.01515624999993-55.47L 241.01515624999993-55.47Q 243.94515624999994-55.47  246.72515624999994-54.88Q 249.51515624999993-54.3  251.80515624999995-52.93Q 254.10515624999994-51.56  255.81515624999994-49.27Q 257.51515624999996-46.97  258.20515624999996-43.55L 258.20515624999996-43.55Q 258.88515624999997-40.14  259.13515624999997-36.67Q 259.3751562499999-33.2  259.3751562499999-29.79L 259.3751562499999-29.79L 259.3751562499999-17.09ZM 276.7589062499999-39.36L 276.7589062499999-39.36Q 276.7589062499999-43.07  278.1289062499999-46.04Q 279.4889062499999-49.02  281.9289062499999-51.12Q 284.3789062499999-53.22  287.4489062499999-54.44Q 290.52890624999986-55.66  293.8489062499999-55.96L 293.8489062499999-55.96L 293.8489062499999-46.19Q 291.3089062499999-45.7  289.8889062499999-44.14Q 288.4789062499999-42.58  288.4789062499999-39.75L 288.4789062499999-39.75Q 288.4789062499999-37.4  289.9889062499999-35.99Q 291.5089062499999-34.57  293.8489062499999-33.5L 293.8489062499999-33.5L 293.8489062499999-23.05Q 292.1889062499999-23.54  290.4789062499999-24.17Q 288.7689062499999-24.8  287.1089062499999-25.59L 287.1089062499999-25.59Q 281.9289062499999-28.32  279.3489062499999-31.35Q 276.7589062499999-34.38  276.7589062499999-39.36ZM 313.1789062499999-51.56L 309.3789062499999-43.46Q 306.7389062499999-44.82  303.7589062499999-45.51Q 300.77890624999986-46.19  297.8489062499999-46.39L 297.8489062499999-46.39L 297.8489062499999-56.05Q 302.2489062499999-55.86  305.95890624999987-54.83Q 309.6689062499999-53.81  313.1789062499999-51.56L 313.1789062499999-51.56ZM 276.9489062499999-4.39L 281.9289062499999-12.3Q 283.8889062499999-10.94  286.5689062499999-9.77Q 289.2589062499999-8.59  293.3589062499999-8.59L 293.3589062499999-8.59L 293.8489062499999-8.59L 293.8489062499999 0.49Q 291.40890624999986 0.49  289.3589062499999 0.34Q 287.3089062499999 0.2  285.2989062499999-0.34Q 283.2989062499999-0.88  281.2489062499999-1.86Q 279.1989062499999-2.83  276.9489062499999-4.39L 276.9489062499999-4.39ZM 297.8489062499999-21.58L 297.8489062499999-31.93Q 300.77890624999986-30.96  303.8089062499999-29.79Q 306.83890624999987-28.61  309.3289062499999-26.86Q 311.8189062499999-25.1  313.4289062499999-22.51Q 315.03890624999985-19.92  315.03890624999985-16.02L 315.03890624999985-16.02Q 315.03890624999985-12.21  313.6689062499999-9.38Q 312.3089062499999-6.54  310.0089062499999-4.49Q 307.7189062499999-2.44  304.58890624999987-1.27Q 301.46890624999986-0.1  297.8489062499999 0.29L 297.8489062499999 0.29L 297.8489062499999-8.98Q 301.1689062499999-9.57  302.9789062499999-11.08Q 304.78890624999985-12.6  304.78890624999985-15.14L 304.78890624999985-15.14Q 304.78890624999985-17.68  302.77890624999986-19.09Q 300.77890624999986-20.51  297.8489062499999-21.58L 297.8489062499999-21.58ZM 330.37265624999986 0L 330.37265624999986-75.88L 342.18265624999987-75.88L 342.18265624999987 0L 330.37265624999986 0ZM 371.38265624999985-49.02L 371.38265624999985-49.02Q 373.0426562499999-47.36  373.9726562499999-45.17Q 374.9026562499999-42.97  375.3426562499999-40.58Q 375.7826562499999-38.18  375.88265624999985-35.74Q 375.9726562499999-33.3  375.9726562499999-30.96L 375.9726562499999-30.96L 375.9726562499999-1.95L 375.9726562499999 0L 364.0626562499999 0L 364.0626562499999-29.98Q 364.0626562499999-33.3  363.7726562499999-36.33Q 363.4726562499999-39.36  362.4026562499999-41.7Q 361.3326562499999-44.04  359.4726562499999-45.36Q 357.6126562499999-46.68  354.2926562499999-46.68L 354.2926562499999-46.68Q 352.93265624999987-46.68  350.6326562499999-46.24Q 348.3426562499999-45.8  346.1926562499999-44.82L 346.1926562499999-44.82L 346.1926562499999-52.34Q 348.8326562499999-53.71  351.9026562499999-54.69Q 354.9826562499999-55.66  357.9126562499999-55.66L 357.9126562499999-55.66Q 362.30265624999987-55.66  365.3326562499999-53.86Q 368.3626562499999-52.05  371.38265624999985-49.02Z" data-textpath="Monash" data-text-anchor="middle" data-font-size="100" data-letterspacing="0" data-side="left" data-offset="0.5" data-dx="0" data-dy="0" data-xmlspace="preserve" data-href="" data-font="Allerta Stencil" data-font-src="/Content/clientfonts/allertastencil.woff" data-font-scale="contain" transform="translate(0,0)" data-x="0" data-y="0" fill="url('#linearGradientSkl3a4g5pzp')"></path></g></svg></g><g transform="matrix(0.8867,0,0,0.8867,150.2449,310.6932)"><svg width="330.56640625" height="187" style="overflow: visible;"><defs><linearGradient x1="0" y1="0.5" x2="1" y2="0.5" id="linearGradientSkl3a4g5pzs"><stop offset="0" stop-color="#1f252e" data-darkreader-inline-stopcolor="" style="--darkreader-inline-stopcolor:#191e25;"></stop><stop offset="1" stop-color="#1f252e" data-darkreader-inline-stopcolor="" style="--darkreader-inline-stopcolor:#191e25;"></stop></linearGradient></defs><g transform="matrix(1,0,0,1,0,95.25)"><path d="M 19.92-71.97L 19.92-37.5Q 19.92-29.98  20.9-24.76Q 21.88-19.53  23.73-16.16Q 25.59-12.79  28.17-11.13Q 30.76-9.47  33.98-9.18L 33.98-9.18L 33.98 0.49Q 28.03 0.1  23.19-2.39Q 18.36-4.88  15.04-9.52Q 11.72-14.16  9.86-20.9Q 8.01-27.64  8.01-36.33L 8.01-36.33L 8.01-71.97L 19.92-71.97ZM 52.15-71.97L 63.96-71.97L 63.96-36.33Q 63.96-27.64  62.11-20.9Q 60.25-14.16  56.88-9.52Q 53.52-4.88  48.73-2.39Q 43.95 0.1  37.99 0.49L 37.99 0.49L 37.99-9.18Q 41.21-9.57  43.8-11.18Q 46.39-12.79  48.24-16.11Q 50.1-19.43  51.12-24.66Q 52.15-29.88  52.15-37.5L 52.15-37.5L 52.15-71.97ZM 80.37265625-55.08L 90.92265625-55.08L 92.18265625000001-49.51L 92.18265625000001 0L 80.37265625 0L 80.37265625-55.08ZM 121.38265625-49.02L 121.38265625-49.02Q 123.04265625-47.36  123.97265625-45.17Q 124.90265625-42.97  125.34265625-40.58Q 125.78265625-38.18  125.88265625-35.74Q 125.97265625-33.3  125.97265625-30.96L 125.97265625-30.96L 125.97265625-1.95L 125.97265625 0L 114.06265625 0L 114.06265625-29.98Q 114.06265625-33.3  113.77265625-36.33Q 113.47265625-39.36  112.40265625-41.7Q 111.33265625-44.04  109.47265625-45.36Q 107.61265625-46.68  104.29265625-46.68L 104.29265625-46.68Q 102.93265625000001-46.68  100.63265625-46.24Q 98.34265625-45.8  96.19265625-44.82L 96.19265625-44.82L 96.19265625-52.34Q 98.83265625-53.71  101.90265625-54.69Q 104.98265624999999-55.66  107.91265625-55.66L 107.91265625-55.66Q 112.30265625-55.66  115.33265625-53.86Q 118.36265625-52.05  121.38265625-49.02ZM 154.09671875-55.08L 154.09671875 0L 142.18671875 0L 142.18671875-55.08L 154.09671875-55.08ZM 155.17671875-72.66L 155.17671875-72.66Q 155.17671875-69.73  153.12671875-67.72Q 151.07671875-65.72  148.14671875-65.72L 148.14671875-65.72Q 145.21671875-65.72  143.21671875-67.77Q 141.20671875-69.82  141.20671875-72.66L 141.20671875-72.66Q 141.20671875-75.59  143.26671875-77.64Q 145.31671875-79.69  148.14671875-79.69L 148.14671875-79.69Q 151.07671875-79.69  153.12671875-77.64Q 155.17671875-75.59  155.17671875-72.66ZM 186.4246875-47.07L 186.4246875-16.7Q 186.4246875-13.38  187.3046875-11.52Q 188.1846875-9.67  189.7946875-8.69Q 191.4046875-7.71  193.4046875-7.47Q 195.4146875-7.23  197.6546875-7.23L 197.6546875-7.23L 197.6546875 0Q 196.38468749999998 0.2  195.1146875 0.29L 195.1146875 0.29Q 194.0446875 0.39  192.5246875 0.44Q 191.0146875 0.49  189.5546875 0.49L 189.5546875 0.49Q 188.0846875 0.49  186.5746875 0.39Q 185.0546875 0.29  183.9846875 0.1L 183.9846875 0.1Q 180.6646875-0.49  178.8046875-2.78Q 176.9546875-5.08  176.0246875-7.86Q 175.0946875-10.64  174.8546875-13.28Q 174.6046875-15.92  174.6046875-17.38L 174.6046875-17.38L 174.6046875-47.07L 167.3846875-47.07L 167.3846875-55.08L 174.6046875-55.08L 174.6046875-70.7L 186.4246875-70.7L 186.4246875-55.08L 195.2146875-55.08L 195.2146875-47.07L 186.4246875-47.07ZM 237.10499999999996-46.39L 237.10499999999996-55.57Q 242.38499999999996-55.08  246.63499999999996-52.73Q 250.87499999999997-50.39  253.90499999999997-46.68Q 256.93499999999995-42.97  258.54499999999996-38.18Q 260.155-33.4  260.155-28.22L 260.155-28.22Q 260.155-25.88  259.86499999999995-23.54L 259.86499999999995-23.54L 226.36499999999998-23.54L 226.36499999999998-32.13L 248.92499999999995-32.13Q 248.92499999999995-34.67  248.09499999999997-37.01Q 247.265-39.36  245.65499999999997-41.36Q 244.04499999999996-43.36  241.89499999999998-44.73Q 239.74499999999998-46.09  237.10499999999996-46.39L 237.10499999999996-46.39ZM 236.71499999999997-9.18L 236.71499999999997-9.18Q 237.79499999999996-9.18  239.40499999999997-9.42Q 241.015-9.67  242.825-10.3Q 244.62499999999997-10.94  246.43499999999997-11.91Q 248.24499999999998-12.89  249.60499999999996-14.26L 249.60499999999996-14.26L 253.90499999999997-7.71Q 250.68499999999997-3.71  246.38499999999996-1.66Q 242.08499999999998 0.39  235.44499999999996 0.39L 235.44499999999996 0.39Q 230.07499999999996 0.39  225.39499999999998-1.81Q 220.70499999999998-4  217.38499999999996-7.81Q 214.06499999999997-11.62  212.10499999999996-16.7Q 210.15499999999997-21.78  210.15499999999997-27.64L 210.15499999999997-27.64Q 210.15499999999997-33.2  211.96499999999997-38.18Q 213.765-43.16  216.89499999999998-46.92Q 220.015-50.68  224.16499999999996-53.03Q 228.32499999999996-55.37  233.10499999999996-55.66L 233.10499999999996-55.66L 233.10499999999996-46.29Q 229.49499999999998-45.61  227.14499999999998-43.36Q 224.80499999999998-41.11  223.48499999999996-38.23Q 222.16499999999996-35.35  221.63499999999996-32.32Q 221.09499999999997-29.3  221.09499999999997-27.15L 221.09499999999997-27.15Q 221.09499999999997-23.34  222.02499999999998-20.07Q 222.94499999999996-16.8  224.90499999999997-14.4Q 226.85499999999996-12.01  229.73499999999996-10.6Q 232.61499999999998-9.18  236.71499999999997-9.18ZM 310.34875-75.88L 322.26875-75.88L 322.26875 0L 311.03875 0L 310.34875-6.54L 310.34875-75.88ZM 272.84875-28.32L 272.84875-28.32Q 272.84875-35.94  274.94875-41.11Q 277.04875-46.29  280.36875-49.51Q 283.68875-52.73  287.74875-54.15Q 291.79875-55.57  295.69875-55.57L 295.69875-55.57Q 298.72875-55.57  301.46875-54.88Q 304.19875-54.2  306.34875-52.93L 306.34875-52.93L 306.34875-42.58Q 304.68875-44.34  302.63875-45.41Q 300.58875-46.48  298.04875-46.48L 298.04875-46.48Q 295.01875-46.48  292.67875-44.97Q 290.32875-43.46  288.71875-40.82Q 287.10875-38.18  286.22875-34.77Q 285.34875-31.35  285.34875-27.44L 285.34875-27.44Q 285.34875-23.54  286.32875-20.17Q 287.30875-16.8  288.96875-14.26Q 290.62875-11.72  293.01875-10.25Q 295.40875-8.79  298.23875-8.79L 298.23875-8.79Q 303.02875-8.79  306.34875-12.6L 306.34875-12.6L 306.34875-2.44Q 304.00875-1.17  300.92875-0.34Q 297.84875 0.49  294.42875 0.49L 294.42875 0.49Q 290.52875 0.49  286.76875-0.93Q 283.00875-2.34  280.07875-5.57L 280.07875-5.57Q 276.36875-9.77  274.60875-15.97Q 272.84875-22.17  272.84875-28.32Z" data-textpath="United" data-text-anchor="middle" data-font-size="100" data-letterspacing="0" data-side="left" data-offset="0.5" data-dx="0" data-dy="0" data-xmlspace="preserve" data-href="" data-font="Allerta Stencil" data-font-src="/Content/clientfonts/allertastencil.woff" data-font-scale="contain" transform="translate(0,0)" data-x="0" data-y="0" fill="url('#linearGradientSkl3a4g5pzs')"></path></g></svg></g></g></svg>