<?xml version="1.0" standalone="no"?>
<!DOCTYPE svg PUBLIC "-//W3C//DTD SVG 20010904//EN"
 "http://www.w3.org/TR/2001/REC-SVG-20010904/DTD/svg10.dtd">
<svg version="1.0" xmlns="http://www.w3.org/2000/svg"
 width="841.000000pt" height="841.000000pt" viewBox="0 0 841.000000 841.000000"
 preserveAspectRatio="xMidYMid meet">
<metadata>
Created by potrace 1.11, written by Peter Selinger 2001-2013
</metadata>
<g transform="translate(0.000000,841.000000) scale(0.100000,-0.100000)"
fill="#000000" stroke="none">
<path d="M4988 8285 c-2 -2 -46 -6 -98 -9 -52 -4 -120 -9 -150 -11 -30 -3 -86
-7 -125 -9 -38 -3 -99 -7 -135 -10 -36 -3 -99 -8 -140 -11 -190 -12 -258 -17
-425 -30 -33 -2 -96 -7 -140 -10 -191 -13 -224 -15 -290 -21 -120 -10 -138
-12 -215 -30 -104 -23 -195 -62 -271 -116 -85 -60 -161 -93 -289 -123 -21 -5
-105 -16 -152 -20 -32 -3 -82 -7 -110 -10 -50 -4 -177 -13 -278 -20 -272 -18
-346 -36 -516 -120 -169 -84 -289 -205 -378 -382 -37 -75 -73 -189 -81 -258
-12 -115 -20 -194 -31 -315 -3 -30 -7 -71 -9 -90 -2 -19 -7 -62 -10 -95 -3
-33 -7 -78 -10 -100 -2 -22 -6 -71 -10 -110 -3 -38 -8 -86 -10 -105 -6 -49
-14 -125 -20 -197 -10 -102 -32 -190 -81 -317 -41 -107 -78 -174 -154 -281
-127 -180 -224 -363 -301 -568 -75 -197 -90 -278 -90 -467 1 -136 -2 -118 67
-395 30 -122 56 -230 59 -240 2 -11 25 -103 50 -205 26 -102 48 -192 50 -200
2 -8 15 -62 30 -120 15 -58 28 -112 30 -120 2 -8 17 -71 35 -140 18 -69 33
-133 35 -142 10 -51 125 -268 162 -306 7 -7 13 -17 13 -21 0 -9 120 -133 175
-181 22 -19 92 -80 155 -135 63 -55 117 -102 120 -106 3 -3 113 -100 245 -216
132 -116 256 -228 276 -249 92 -101 168 -272 183 -414 3 -30 8 -165 11 -300
10 -463 12 -487 42 -549 47 -95 132 -161 231 -179 29 -5 107 -9 175 -8 102 1
129 5 167 22 105 49 166 147 175 280 6 83 26 175 52 234 8 19 21 50 30 69 41
95 123 196 258 316 90 80 176 171 190 201 47 99 4 214 -101 270 -32 16 -345
197 -456 263 -15 9 -64 38 -110 65 -271 160 -674 422 -855 557 -234 175 -337
278 -390 389 -245 515 -328 731 -379 985 -31 154 -39 232 -39 380 0 110 11
251 21 266 2 4 6 24 10 45 11 74 67 230 116 322 74 141 139 230 268 366 364
386 674 626 890 687 81 24 104 23 157 0 107 -49 194 -188 200 -320 6 -113 8
-120 56 -141 91 -41 346 0 597 97 8 3 20 7 25 8 6 2 57 22 115 45 208 83 352
165 381 217 10 19 7 29 -19 70 -61 95 -76 148 -75 263 0 52 7 93 22 133 20 51
25 57 51 57 39 0 128 -89 162 -162 40 -84 78 -232 96 -368 9 -75 9 -332 -1
-403 -25 -178 -104 -354 -205 -453 -132 -130 -580 -344 -908 -433 -88 -24
-123 -28 -198 -26 -103 3 -122 6 -210 39 -72 27 -125 59 -176 106 -95 86 -181
78 -235 -22 -69 -127 3 -264 190 -360 62 -31 168 -66 350 -114 180 -48 380
-116 625 -214 253 -101 404 -167 673 -294 108 -51 163 -67 193 -56 45 17 58
61 38 129 -10 33 -12 98 -8 255 3 116 6 267 8 336 3 146 16 183 78 227 37 25
48 28 117 26 65 -1 113 8 326 64 138 36 261 67 274 69 14 3 28 7 32 10 9 5 91
12 349 29 47 4 112 8 145 11 131 10 733 13 810 3 174 -22 178 -28 171 -257 -3
-86 -8 -168 -10 -182 -3 -14 -7 -57 -10 -97 -3 -40 -12 -116 -20 -170 -8 -54
-17 -120 -21 -148 -3 -27 -10 -70 -15 -95 -5 -25 -12 -61 -14 -80 -14 -94 -36
-180 -56 -220 -15 -30 -112 -131 -226 -236 -374 -346 -500 -478 -567 -594 -31
-55 -35 -79 -42 -255 -3 -77 -7 -178 -10 -225 -2 -47 -7 -141 -10 -210 -10
-214 -15 -322 -20 -410 -2 -47 -7 -141 -10 -210 -3 -69 -8 -156 -10 -195 -2
-38 -7 -133 -11 -210 -3 -77 -8 -165 -9 -195 -15 -287 -16 -419 -5 -460 24
-89 102 -170 195 -200 26 -9 99 -14 215 -14 167 -1 177 0 224 24 27 14 68 47
92 74 71 78 75 104 89 561 3 99 8 230 10 290 2 61 7 198 11 305 3 107 8 224 9
260 2 36 4 108 5 161 3 115 14 191 41 284 27 89 91 226 135 288 29 39 314 391
388 477 134 157 217 286 290 450 18 43 65 177 70 205 3 11 12 53 20 92 24 111
32 161 50 308 19 149 23 217 32 490 3 110 7 234 9 275 1 41 6 167 10 280 3
113 8 243 10 290 2 47 6 175 10 285 3 110 8 236 10 280 17 373 22 680 12 746
-9 58 -48 173 -81 239 -47 93 -71 123 -264 329 -64 68 -124 131 -132 141 -43
49 -251 269 -290 307 -146 141 -377 249 -660 308 -64 13 -224 58 -265 74 -132
51 -264 131 -350 213 -90 85 -244 139 -407 143 -54 1 -99 1 -100 0z m-228
-829 c64 -6 199 -32 250 -49 44 -14 155 -85 198 -127 55 -53 111 -134 136
-196 21 -52 24 -72 21 -159 -8 -242 -24 -701 -30 -870 -2 -66 -7 -208 -10
-315 -13 -399 -11 -380 -56 -475 -82 -174 -234 -261 -472 -270 -109 -4 -165
13 -218 66 -59 59 -72 128 -56 309 7 74 8 389 2 485 -10 173 -16 251 -25 340
-13 123 -19 181 -25 220 -3 17 -7 55 -10 85 -3 30 -7 66 -9 80 -5 28 -14 95
-21 155 -3 22 -10 65 -15 95 -5 30 -12 73 -15 95 -3 23 -7 50 -9 60 -2 11 -7
42 -10 68 -4 27 -9 59 -12 70 -5 24 -6 33 -28 162 -9 50 -16 96 -16 102 0 27
101 59 226 71 69 7 101 7 204 -2z m-979 -70 c94 -22 151 -49 187 -90 18 -20
32 -40 33 -44 1 -9 1 -8 33 -164 31 -150 33 -227 7 -283 -41 -91 -140 -139
-351 -170 -111 -16 -338 -55 -365 -63 -114 -32 -232 58 -266 203 -18 76 -20
255 -3 325 45 196 157 270 454 303 58 6 212 -3 271 -17z m2382 -137 c92 -48
303 -236 361 -323 79 -119 155 -380 180 -616 13 -126 17 -170 21 -225 6 -74 6
-451 1 -485 -2 -14 -7 -54 -11 -90 -11 -102 -24 -125 -87 -148 -54 -20 -167
-46 -251 -58 -23 -3 -53 -8 -67 -10 -142 -24 -421 -26 -465 -4 l-30 15 1 480
c3 879 6 1108 19 1160 15 65 65 159 113 212 41 45 136 113 158 113 8 0 34 -10
57 -21z m-3436 -168 c83 -23 114 -110 118 -336 2 -82 -1 -172 -6 -200 -15 -83
-76 -193 -149 -265 -53 -53 -119 -100 -150 -105 -3 -1 -31 -5 -64 -9 -32 -4
-68 -9 -80 -11 -131 -23 -340 -46 -374 -41 -58 8 -112 37 -152 82 -42 48 -59
90 -66 162 -3 31 -8 64 -11 72 -2 8 -6 110 -8 225 -3 176 -1 221 14 278 10 37
26 73 36 81 24 18 247 50 495 72 41 3 76 7 77 8 9 8 286 -3 320 -13z"/>
</g>
</svg>
